<svg width="169" height="165" viewBox="0 0 169 165" fill="none" xmlns="http://www.w3.org/2000/svg">
<path d="M86.6961 88.1178C126.217 189.236 51.6824 191.961 82.7738 88.2611C51.6839 191.96 -10.3147 152.876 79.5105 86.2045C-10.3162 152.876 -36.0974 86.9093 78.1529 82.7323C-36.0989 86.9093 -15.817 19.2595 79.2203 79.1719C-15.817 19.2595 42.7831 -24.2344 82.3039 76.8822C42.7831 -24.2358 117.318 -26.9612 86.2261 76.7389C117.316 -26.9597 179.315 12.1241 89.4895 78.7956C179.316 12.1241 205.097 78.0907 90.8471 82.2677C205.099 78.0907 184.817 145.741 89.7797 85.8282C184.817 145.741 126.217 189.234 86.6961 88.1178Z" fill="#27F09F"/>
</svg>
