<svg width="27" height="28" viewBox="0 0 27 28" fill="none" xmlns="http://www.w3.org/2000/svg">
<path d="M13.5008 27.8908C12.0739 27.8908 13.1384 25.1736 12.1293 24.1069C11.1203 23.0401 9.82701 24.4075 8.81793 23.3408C7.80885 22.274 9.10235 20.9069 8.09327 19.8401C7.08418 18.7734 5.79069 20.1408 4.78161 19.0741C3.77253 18.0073 5.06579 16.6399 4.0567 15.5732C3.04762 14.5064 0.477295 15.6318 0.477295 14.1234C0.477295 12.6149 3.04762 13.7403 4.0567 12.6736C5.06579 11.6069 3.7723 10.2397 4.78138 9.17296C5.79046 8.10622 7.08372 9.47362 8.0928 8.40688C9.10188 7.34014 7.80838 5.97273 8.81746 4.90599C9.82654 3.83925 11.12 5.20641 12.1291 4.13967C13.1382 3.07292 12.0736 0.355713 13.5005 0.355713C14.9275 0.355713 13.8629 3.07292 14.872 4.13967C15.881 5.20641 17.1743 3.839 18.1834 4.90575C19.1924 5.97249 17.899 7.33965 18.908 8.40639C19.9171 9.47313 21.2106 8.10573 22.2197 9.17247C23.2288 10.2392 21.9355 11.6066 22.9446 12.6734C23.9537 13.7401 26.524 12.6147 26.524 14.1231C26.524 15.6316 23.9537 14.5062 22.9446 15.5729C21.9355 16.6397 23.229 18.0068 22.2199 19.0736C21.2108 20.1403 19.9176 18.7729 18.9085 19.8397C17.8994 20.9064 19.1929 22.2738 18.1838 23.3405C17.1748 24.4073 15.3751 23.0049 14.7099 24.3396C13.8259 26.1128 14.9279 27.8908 13.5008 27.8908Z" fill="#6F00FF"/>
</svg>
