<svg width="29" height="28" viewBox="0 0 29 28" fill="none" xmlns="http://www.w3.org/2000/svg">
<path d="M14.8433 15.0608C21.4565 31.9353 8.98436 32.3901 14.187 15.0847C8.98461 32.3898 -1.38981 25.8676 13.6409 14.7415C-1.39007 25.8676 -5.7041 14.8591 13.4138 14.162C-5.70436 14.8591 -2.31053 3.56972 13.5924 13.5679C-2.31053 3.56972 7.4952 -3.68851 14.1083 13.1858C7.4952 -3.68875 19.9673 -4.14355 14.7647 13.1619C19.967 -4.14331 30.3415 2.37898 15.3107 13.5051C30.3417 2.37898 34.6558 13.3874 15.5379 14.0845C34.656 13.3874 31.2622 24.6768 15.3593 14.6787C31.2622 24.6768 21.4565 31.935 14.8433 15.0608Z" fill="#27F09F"/>
</svg>
