<svg width="29" height="28" viewBox="0 0 29 28" fill="none" xmlns="http://www.w3.org/2000/svg">
<path d="M14.2436 1.16877C12.1643 1.16877 11.6681 -0.425305 9.98583 0.850632C8.30355 2.12657 10.0902 4.69321 8.40793 5.96915C6.72564 7.24509 4.93898 4.6782 3.2567 5.95414C1.57441 7.23007 2.87331 8.21523 2.23059 10.2797C1.58788 12.344 -0.0176363 12.344 0.625079 14.4083C1.26756 16.4725 4.15848 15.4922 4.80097 17.5565C5.44368 19.621 2.55274 20.6013 3.19546 22.6658C3.83817 24.7303 5.13706 23.7451 6.81935 25.021C8.50163 26.297 8.00527 27.8908 10.0846 27.8908C12.164 27.8908 12.164 24.7179 14.2434 24.7179C16.3228 24.7179 16.323 27.8908 18.4024 27.8908C20.4818 27.8908 19.9859 26.2967 21.6681 25.021C23.3504 23.7454 24.6493 24.7305 25.2918 22.666C25.9343 20.6018 23.0436 19.6212 23.6863 17.5569C24.329 15.4924 27.2197 16.473 27.8622 14.4085C28.5049 12.344 26.8992 12.344 26.2567 10.2795C25.6142 8.21499 26.9131 7.23007 25.2308 5.95438C23.5485 4.67844 21.7619 7.24533 20.0796 5.96963C18.3973 4.6937 20.1837 2.12342 18.4998 0.849906C17.068 -0.233067 16.3228 1.16925 14.2432 1.16901L14.2436 1.16877Z" fill="#6F00FF"/>
</svg>
