<?xml version="1.0" encoding="UTF-8"?>
<svg id="a" data-name="Capa 1" xmlns="http://www.w3.org/2000/svg" width="506" height="77" viewBox="0 0 506 77">
  <path id="b" data-name="chispa" d="M56.222,44c-2.301,0-.584-4.342-2.211-6.047-1.627-1.705-3.712.48-5.34-1.224-1.627-1.705.459-3.889-1.168-5.594-1.627-1.705-3.713.481-5.34-1.224-1.627-1.705.458-3.89-1.169-5.594-1.627-1.705-5.772.094-5.772-2.317s4.145-.612,5.772-2.317c1.627-1.705-.459-3.889,1.168-5.594,1.627-1.705,3.713.481,5.34-1.224,1.627-1.705-.459-3.89,1.168-5.594,1.627-1.705,3.713.48,5.34-1.225C55.638,4.342,53.921,0,56.222,0s.584,4.342,2.211,6.047c1.627,1.705,3.712-.48,5.34,1.224,1.627,1.705-.459,3.889,1.168,5.594,1.627,1.705,3.713-.481,5.34,1.224,1.627,1.705-.458,3.89,1.169,5.594,1.627,1.705,5.772-.094,5.772,2.317s-4.145.612-5.772,2.317c-1.627,1.705.459,3.889-1.169,5.594-1.627,1.705-3.713-.481-5.34,1.224-1.627,1.705.459,3.89-1.168,5.594-1.627,1.705-4.529-.536-5.602,1.596-1.425,2.833.352,5.675-1.95,5.675Z" fill="#000" stroke-width="0"/>
  <path id="c" data-name="chispa" d="M0,44c-2.301,0-.584-4.342-2.211-6.047-1.627-1.705-3.712.48-5.34-1.224-1.627-1.705.459-3.889-1.168-5.594-1.627-1.705-3.713.481-5.34-1.224-1.627-1.705.458-3.89-1.169-5.594-1.627-1.705-5.772.094-5.772-2.317s4.145-.612,5.772-2.317c1.627-1.705-.459-3.889,1.168-5.594,1.627-1.705,3.713.481,5.34-1.224,1.627-1.705-.459-3.89,1.168-5.594,1.627-1.705,3.713.48,5.34-1.225C-.584,4.342-2.301,0,0,0s.584,4.342,2.211,6.047c1.627,1.705,3.712-.48,5.34,1.224,1.627,1.705-.459,3.889,1.168,5.594,1.627,1.705,3.713-.481,5.34,1.224,1.627,1.705-.458,3.89,1.169,5.594,1.627,1.705,5.772-.094,5.772,2.317s-4.145.612-5.772,2.317c-1.627,1.705.459,3.889-1.169,5.594-1.627,1.705-3.713-.481-5.34,1.224-1.627,1.705.459,3.89-1.168,5.594-1.627,1.705-4.529-.536-5.602,1.596C.524,41.159,2.301,44,0,44Z" fill="#000" stroke-width="0"/>
  <path id="d" data-name="chispa" d="M112.444,44c-2.301,0-.584-4.342-2.211-6.047s-3.713.48-5.34-1.224c-1.627-1.705.459-3.889-1.168-5.594-1.627-1.705-3.713.481-5.34-1.224-1.627-1.705.458-3.89-1.169-5.594-1.627-1.705-5.772.094-5.772-2.317s4.145-.612,5.772-2.317c1.627-1.705-.459-3.889,1.169-5.594,1.627-1.705,3.713.481,5.34-1.224,1.627-1.705-.459-3.89,1.168-5.594,1.628-1.705,3.713.48,5.34-1.225C111.86,4.342,110.143,0,112.444,0s.584,4.342,2.211,6.047c1.627,1.705,3.713-.48,5.34,1.224s-.459,3.889,1.168,5.594c1.627,1.705,3.713-.481,5.34,1.224,1.627,1.705-.458,3.89,1.169,5.594,1.627,1.705,5.772-.094,5.772,2.317s-4.145.612-5.772,2.317c-1.627,1.705.459,3.889-1.168,5.594-1.627,1.705-3.713-.481-5.34,1.224-1.627,1.705.459,3.89-1.168,5.594-1.628,1.705-4.529-.536-5.602,1.596-1.426,2.833.351,5.675-1.95,5.675Z" fill="#000" stroke-width="0"/>
  <path id="e" data-name="chispa" d="M168.667,44c-2.301,0-.584-4.342-2.211-6.047s-3.713.48-5.34-1.224c-1.627-1.705.459-3.889-1.168-5.594-1.627-1.705-3.713.481-5.34-1.224-1.627-1.705.458-3.89-1.169-5.594s-5.772.094-5.772-2.317,4.145-.612,5.772-2.317-.459-3.889,1.168-5.594c1.627-1.705,3.713.481,5.34-1.224,1.627-1.705-.459-3.89,1.168-5.594,1.628-1.705,3.713.48,5.34-1.225C168.083,4.342,166.366,0,168.667,0s.584,4.342,2.211,6.047c1.627,1.705,3.713-.48,5.34,1.224s-.459,3.889,1.168,5.594c1.627,1.705,3.713-.481,5.34,1.224,1.627,1.705-.458,3.89,1.169,5.594s5.772-.094,5.772,2.317-4.145.612-5.772,2.317.459,3.889-1.168,5.594c-1.627,1.705-3.713-.481-5.34,1.224-1.627,1.705.459,3.89-1.168,5.594-1.628,1.705-4.529-.536-5.602,1.596-1.426,2.833.351,5.675-1.95,5.675Z" fill="#000" stroke-width="0"/>
  <path id="f" data-name="chispa" d="M224.889,44c-2.301,0-.584-4.342-2.211-6.047s-3.713.48-5.34-1.224c-1.627-1.705.459-3.889-1.168-5.594-1.627-1.705-3.713.481-5.34-1.224-1.627-1.705.458-3.89-1.169-5.594s-5.772.094-5.772-2.317,4.145-.612,5.772-2.317-.459-3.889,1.168-5.594c1.627-1.705,3.713.481,5.34-1.224,1.627-1.705-.459-3.89,1.168-5.594,1.628-1.705,3.713.48,5.34-1.225C224.305,4.342,222.588,0,224.889,0s.584,4.342,2.211,6.047c1.627,1.705,3.713-.48,5.34,1.224s-.459,3.889,1.168,5.594c1.627,1.705,3.713-.481,5.34,1.224,1.627,1.705-.458,3.89,1.169,5.594s5.772-.094,5.772,2.317-4.145.612-5.772,2.317.459,3.889-1.168,5.594c-1.627,1.705-3.713-.481-5.34,1.224-1.627,1.705.459,3.89-1.168,5.594-1.628,1.705-4.529-.536-5.602,1.596-1.426,2.833.351,5.675-1.95,5.675Z" fill="#000" stroke-width="0"/>
  <path id="g" data-name="chispa" d="M281.111,44c-2.301,0-.584-4.342-2.211-6.047-1.627-1.705-3.713.48-5.34-1.224-1.627-1.705.459-3.889-1.168-5.594-1.627-1.705-3.713.481-5.34-1.224-1.627-1.705.458-3.89-1.169-5.594-1.627-1.705-5.772.094-5.772-2.317s4.145-.612,5.772-2.317c1.627-1.705-.459-3.889,1.168-5.594,1.627-1.705,3.713.481,5.34-1.224,1.627-1.705-.459-3.89,1.168-5.594,1.628-1.705,3.713.48,5.34-1.225C280.527,4.342,278.81,0,281.111,0s.584,4.342,2.211,6.047c1.627,1.705,3.713-.48,5.34,1.224,1.627,1.705-.459,3.889,1.168,5.594,1.627,1.705,3.713-.481,5.34,1.224,1.627,1.705-.458,3.89,1.169,5.594,1.627,1.705,5.772-.094,5.772,2.317s-4.145.612-5.772,2.317c-1.627,1.705.459,3.889-1.168,5.594-1.627,1.705-3.713-.481-5.34,1.224-1.627,1.705.459,3.89-1.168,5.594-1.628,1.705-4.529-.536-5.602,1.596-1.426,2.833.351,5.675-1.95,5.675Z" fill="#000" stroke-width="0"/>
  <path id="h" data-name="chispa" d="M337.333,44c-2.301,0-.584-4.342-2.211-6.047-1.627-1.705-3.713.48-5.34-1.224-1.627-1.705.459-3.889-1.168-5.594-1.627-1.705-3.713.481-5.34-1.224-1.627-1.705.458-3.89-1.169-5.594-1.627-1.705-5.772.094-5.772-2.317s4.145-.612,5.772-2.317c1.627-1.705-.459-3.889,1.168-5.594,1.627-1.705,3.713.481,5.34-1.224,1.627-1.705-.459-3.89,1.168-5.594,1.628-1.705,3.713.48,5.34-1.225C336.749,4.342,335.032,0,337.333,0s.584,4.342,2.211,6.047c1.627,1.705,3.713-.48,5.34,1.224,1.627,1.705-.459,3.889,1.168,5.594,1.627,1.705,3.713-.481,5.34,1.224,1.627,1.705-.458,3.89,1.169,5.594,1.627,1.705,5.772-.094,5.772,2.317s-4.145.612-5.772,2.317c-1.627,1.705.459,3.889-1.168,5.594-1.627,1.705-3.713-.481-5.34,1.224-1.627,1.705.459,3.89-1.168,5.594-1.628,1.705-4.529-.536-5.602,1.596-1.426,2.833.351,5.675-1.95,5.675Z" fill="#000" stroke-width="0"/>
  <path id="i" data-name="chispa" d="M393.556,44c-2.301,0-.584-4.342-2.211-6.047-1.627-1.705-3.713.48-5.34-1.224-1.627-1.705.459-3.889-1.168-5.594-1.627-1.705-3.713.481-5.34-1.224-1.627-1.705.458-3.89-1.169-5.594-1.627-1.705-5.772.094-5.772-2.317s4.145-.612,5.772-2.317c1.627-1.705-.459-3.889,1.168-5.594,1.627-1.705,3.713.481,5.34-1.224,1.627-1.705-.459-3.89,1.168-5.594,1.628-1.705,3.713.48,5.34-1.225C392.972,4.342,391.255,0,393.556,0s.584,4.342,2.211,6.047c1.627,1.705,3.713-.48,5.34,1.224,1.627,1.705-.459,3.889,1.168,5.594,1.627,1.705,3.713-.481,5.34,1.224,1.627,1.705-.458,3.89,1.169,5.594,1.627,1.705,5.772-.094,5.772,2.317s-4.145.612-5.772,2.317c-1.627,1.705.459,3.889-1.168,5.594-1.627,1.705-3.713-.481-5.34,1.224-1.627,1.705.459,3.89-1.168,5.594-1.628,1.705-4.529-.536-5.602,1.596-1.426,2.833.351,5.675-1.95,5.675Z" fill="#000" stroke-width="0"/>
  <path id="j" data-name="chispa" d="M449.778,44c-2.301,0-.584-4.342-2.211-6.047-1.627-1.705-3.713.48-5.34-1.224-1.627-1.705.459-3.889-1.168-5.594-1.627-1.705-3.713.481-5.34-1.224-1.627-1.705.458-3.89-1.169-5.594-1.627-1.705-5.772.094-5.772-2.317s4.145-.612,5.772-2.317c1.627-1.705-.459-3.889,1.168-5.594,1.627-1.705,3.713.481,5.34-1.224,1.627-1.705-.459-3.89,1.168-5.594,1.628-1.705,3.713.48,5.34-1.225C449.194,4.342,447.477,0,449.778,0s.584,4.342,2.211,6.047c1.627,1.705,3.713-.48,5.34,1.224,1.627,1.705-.459,3.889,1.168,5.594,1.627,1.705,3.713-.481,5.34,1.224,1.627,1.705-.458,3.89,1.169,5.594,1.627,1.705,5.772-.094,5.772,2.317s-4.145.612-5.772,2.317c-1.627,1.705.459,3.889-1.168,5.594-1.627,1.705-3.713-.481-5.34,1.224-1.627,1.705.459,3.89-1.168,5.594-1.628,1.705-4.529-.536-5.602,1.596-1.426,2.833.351,5.675-1.95,5.675Z" fill="#000" stroke-width="0"/>
  <path id="k" data-name="chispa" d="M506,44c-2.301,0-.584-4.342-2.211-6.047-1.627-1.705-3.713.48-5.34-1.224-1.627-1.705.459-3.889-1.168-5.594-1.627-1.705-3.713.481-5.34-1.224-1.627-1.705.458-3.89-1.169-5.594-1.627-1.705-5.772.094-5.772-2.317s4.145-.612,5.772-2.317c1.627-1.705-.459-3.889,1.168-5.594,1.627-1.705,3.713.481,5.34-1.224,1.627-1.705-.459-3.89,1.168-5.594,1.628-1.705,3.713.48,5.34-1.225C505.416,4.342,503.699,0,506,0s.584,4.342,2.211,6.047c1.627,1.705,3.713-.48,5.34,1.224,1.627,1.705-.459,3.889,1.168,5.594,1.627,1.705,3.713-.481,5.34,1.224,1.627,1.705-.458,3.89,1.169,5.594,1.627,1.705,5.772-.094,5.772,2.317s-4.145.612-5.772,2.317c-1.627,1.705.459,3.889-1.168,5.594-1.627,1.705-3.713-.481-5.34,1.224-1.627,1.705.459,3.89-1.168,5.594-1.628,1.705-4.529-.536-5.602,1.596-1.426,2.833.351,5.675-1.95,5.675Z" fill="#000" stroke-width="0"/>
  <path id="l" data-name="chispa" d="M29.889,77c-2.301,0-.584-4.342-2.211-6.047s-3.712.48-5.34-1.224c-1.627-1.705.459-3.889-1.168-5.594-1.627-1.705-3.713.48-5.34-1.224-1.627-1.705.458-3.89-1.169-5.594-1.627-1.705-5.772.094-5.772-2.317s4.145-.612,5.772-2.317c1.627-1.705-.459-3.889,1.169-5.594,1.627-1.705,3.713.48,5.34-1.224,1.627-1.705-.459-3.89,1.168-5.594,1.627-1.705,3.713.48,5.34-1.225s-.09-6.047,2.211-6.047.584,4.342,2.211,6.047,3.712-.48,5.34,1.224c1.627,1.705-.459,3.889,1.168,5.594,1.627,1.705,3.713-.48,5.34,1.224,1.627,1.705-.458,3.89,1.169,5.594,1.627,1.705,5.772-.094,5.772,2.317s-4.145.612-5.772,2.317c-1.627,1.705.459,3.889-1.168,5.594-1.627,1.705-3.712-.48-5.34,1.224-1.627,1.705.459,3.89-1.169,5.594-1.627,1.705-4.529-.536-5.602,1.597-1.425,2.833.352,5.675-1.95,5.675Z" fill="#000" stroke-width="0"/>
  <path id="m" data-name="chispa" d="M85.667,77c-2.301,0-.584-4.342-2.211-6.047-1.627-1.705-3.713.48-5.34-1.224-1.627-1.705.459-3.889-1.169-5.594-1.627-1.705-3.713.48-5.34-1.224-1.627-1.705.458-3.89-1.169-5.594-1.627-1.705-5.772.094-5.772-2.317s4.145-.612,5.772-2.317c1.627-1.705-.459-3.889,1.168-5.594s3.713.48,5.34-1.224c1.627-1.705-.459-3.89,1.169-5.594,1.627-1.705,3.713.48,5.34-1.225s-.09-6.047,2.211-6.047.584,4.342,2.211,6.047c1.627,1.705,3.713-.48,5.34,1.224,1.627,1.705-.459,3.889,1.169,5.594,1.627,1.705,3.713-.48,5.34,1.224,1.627,1.705-.458,3.89,1.169,5.594,1.627,1.705,5.772-.094,5.772,2.317s-4.145.612-5.772,2.317c-1.627,1.705.459,3.889-1.169,5.594-1.627,1.705-3.713-.48-5.34,1.224-1.627,1.705.459,3.89-1.169,5.594-1.627,1.705-4.529-.536-5.602,1.597-1.425,2.833.352,5.675-1.95,5.675Z" fill="#000" stroke-width="0"/>
  <path id="n" data-name="chispa" d="M141.444,77c-2.301,0-.584-4.342-2.211-6.047s-3.713.48-5.34-1.224c-1.627-1.705.459-3.889-1.168-5.594-1.627-1.705-3.713.48-5.34-1.224-1.627-1.705.458-3.89-1.169-5.594-1.627-1.705-5.772.094-5.772-2.317s4.145-.612,5.772-2.317c1.627-1.705-.459-3.889,1.168-5.594s3.713.48,5.34-1.224c1.627-1.705-.459-3.89,1.168-5.594,1.628-1.705,3.713.48,5.34-1.225,1.628-1.705-.089-6.047,2.212-6.047s.584,4.342,2.211,6.047,3.713-.48,5.34,1.224c1.627,1.705-.459,3.889,1.168,5.594s3.713-.48,5.34,1.224c1.627,1.705-.458,3.89,1.169,5.594,1.627,1.705,5.772-.094,5.772,2.317s-4.145.612-5.772,2.317c-1.627,1.705.459,3.889-1.168,5.594-1.627,1.705-3.713-.48-5.34,1.224-1.627,1.705.459,3.89-1.168,5.594-1.628,1.705-4.529-.536-5.602,1.597-1.426,2.833.351,5.675-1.95,5.675Z" fill="#000" stroke-width="0"/>
  <path id="o" data-name="chispa" d="M197.222,77c-2.301,0-.584-4.342-2.211-6.047s-3.713.48-5.34-1.224c-1.627-1.705.459-3.889-1.168-5.594-1.627-1.705-3.713.48-5.34-1.224-1.627-1.705.458-3.89-1.169-5.594-1.627-1.705-5.772.094-5.772-2.317s4.145-.612,5.772-2.317c1.627-1.705-.459-3.889,1.168-5.594s3.713.48,5.34-1.224c1.627-1.705-.459-3.89,1.168-5.594,1.628-1.705,3.713.48,5.34-1.225,1.628-1.705-.089-6.047,2.212-6.047s.584,4.342,2.211,6.047,3.713-.48,5.34,1.224c1.627,1.705-.459,3.889,1.168,5.594s3.713-.48,5.34,1.224c1.627,1.705-.458,3.89,1.169,5.594,1.627,1.705,5.772-.094,5.772,2.317s-4.145.612-5.772,2.317c-1.627,1.705.459,3.889-1.168,5.594-1.627,1.705-3.713-.48-5.34,1.224-1.627,1.705.459,3.89-1.168,5.594-1.628,1.705-4.529-.536-5.602,1.597-1.426,2.833.351,5.675-1.95,5.675Z" fill="#000" stroke-width="0"/>
  <path id="p" data-name="chispa" d="M253,77c-2.301,0-.584-4.342-2.211-6.047s-3.713.48-5.34-1.224c-1.627-1.705.459-3.889-1.168-5.594-1.627-1.705-3.713.48-5.34-1.224-1.627-1.705.458-3.89-1.169-5.594-1.627-1.705-5.772.094-5.772-2.317s4.145-.612,5.772-2.317c1.627-1.705-.459-3.889,1.168-5.594s3.713.48,5.34-1.224c1.627-1.705-.459-3.89,1.168-5.594,1.628-1.705,3.713.48,5.34-1.225,1.628-1.705-.089-6.047,2.212-6.047s.584,4.342,2.211,6.047c1.627,1.705,3.713-.48,5.34,1.224,1.627,1.705-.459,3.889,1.168,5.594,1.627,1.705,3.713-.48,5.34,1.224,1.627,1.705-.458,3.89,1.169,5.594,1.627,1.705,5.772-.094,5.772,2.317s-4.145.612-5.772,2.317c-1.627,1.705.459,3.889-1.168,5.594-1.627,1.705-3.713-.48-5.34,1.224-1.627,1.705.459,3.89-1.168,5.594-1.628,1.705-4.529-.536-5.602,1.597-1.426,2.833.351,5.675-1.95,5.675Z" fill="#000" stroke-width="0"/>
  <path id="q" data-name="chispa" d="M308.778,77c-2.301,0-.584-4.342-2.211-6.047-1.627-1.705-3.713.48-5.34-1.224-1.627-1.705.459-3.889-1.168-5.594-1.627-1.705-3.713.48-5.34-1.224-1.627-1.705.458-3.89-1.169-5.594-1.627-1.705-5.772.094-5.772-2.317s4.145-.612,5.772-2.317c1.627-1.705-.459-3.889,1.168-5.594,1.627-1.705,3.713.48,5.34-1.224,1.627-1.705-.459-3.89,1.168-5.594,1.628-1.705,3.713.48,5.34-1.225,1.628-1.705-.089-6.047,2.212-6.047s.584,4.342,2.211,6.047c1.627,1.705,3.713-.48,5.34,1.224,1.627,1.705-.459,3.889,1.168,5.594,1.627,1.705,3.713-.48,5.34,1.224,1.627,1.705-.458,3.89,1.169,5.594,1.627,1.705,5.772-.094,5.772,2.317s-4.145.612-5.772,2.317c-1.627,1.705.459,3.889-1.168,5.594-1.627,1.705-3.713-.48-5.34,1.224-1.627,1.705.459,3.89-1.168,5.594-1.628,1.705-4.529-.536-5.602,1.597-1.426,2.833.351,5.675-1.95,5.675Z" fill="#000" stroke-width="0"/>
  <path id="r" data-name="chispa" d="M364.556,77c-2.301,0-.584-4.342-2.211-6.047-1.627-1.705-3.713.48-5.34-1.224-1.627-1.705.459-3.889-1.168-5.594-1.627-1.705-3.713.48-5.34-1.224-1.627-1.705.458-3.89-1.169-5.594-1.627-1.705-5.772.094-5.772-2.317s4.145-.612,5.772-2.317c1.627-1.705-.459-3.889,1.168-5.594,1.627-1.705,3.713.48,5.34-1.224,1.627-1.705-.459-3.89,1.168-5.594,1.628-1.705,3.713.48,5.34-1.225,1.628-1.705-.089-6.047,2.212-6.047s.584,4.342,2.211,6.047c1.627,1.705,3.713-.48,5.34,1.224,1.627,1.705-.459,3.889,1.168,5.594,1.627,1.705,3.713-.48,5.34,1.224,1.627,1.705-.458,3.89,1.169,5.594,1.627,1.705,5.772-.094,5.772,2.317s-4.145.612-5.772,2.317c-1.627,1.705.459,3.889-1.168,5.594-1.627,1.705-3.713-.48-5.34,1.224-1.627,1.705.459,3.89-1.168,5.594-1.628,1.705-4.529-.536-5.602,1.597-1.426,2.833.351,5.675-1.95,5.675Z" fill="#000" stroke-width="0"/>
  <path id="s" data-name="chispa" d="M420.333,77c-2.301,0-.584-4.342-2.211-6.047-1.627-1.705-3.713.48-5.34-1.224-1.627-1.705.459-3.889-1.168-5.594-1.627-1.705-3.713.48-5.34-1.224-1.627-1.705.458-3.89-1.169-5.594-1.627-1.705-5.772.094-5.772-2.317s4.145-.612,5.772-2.317c1.627-1.705-.459-3.889,1.168-5.594,1.627-1.705,3.713.48,5.34-1.224,1.627-1.705-.459-3.89,1.168-5.594,1.628-1.705,3.713.48,5.34-1.225,1.628-1.705-.089-6.047,2.212-6.047s.584,4.342,2.211,6.047c1.627,1.705,3.713-.48,5.34,1.224,1.627,1.705-.459,3.889,1.168,5.594,1.627,1.705,3.713-.48,5.34,1.224,1.627,1.705-.458,3.89,1.169,5.594,1.627,1.705,5.772-.094,5.772,2.317s-4.145.612-5.772,2.317c-1.627,1.705.459,3.889-1.168,5.594-1.627,1.705-3.713-.48-5.34,1.224-1.627,1.705.459,3.89-1.168,5.594-1.628,1.705-4.529-.536-5.602,1.597-1.426,2.833.351,5.675-1.95,5.675Z" fill="#000" stroke-width="0"/>
  <path id="t" data-name="chispa" d="M476.111,77c-2.301,0-.584-4.342-2.211-6.047-1.627-1.705-3.713.48-5.34-1.224-1.627-1.705.459-3.889-1.168-5.594-1.627-1.705-3.713.48-5.34-1.224-1.627-1.705.458-3.89-1.169-5.594-1.627-1.705-5.772.094-5.772-2.317s4.145-.612,5.772-2.317c1.627-1.705-.459-3.889,1.168-5.594,1.627-1.705,3.713.48,5.34-1.224,1.627-1.705-.459-3.89,1.168-5.594,1.628-1.705,3.713.48,5.34-1.225,1.628-1.705-.089-6.047,2.212-6.047s.584,4.342,2.211,6.047c1.627,1.705,3.713-.48,5.34,1.224,1.627,1.705-.459,3.889,1.168,5.594,1.627,1.705,3.713-.48,5.34,1.224,1.627,1.705-.458,3.89,1.169,5.594,1.627,1.705,5.772-.094,5.772,2.317s-4.145.612-5.772,2.317c-1.627,1.705.459,3.889-1.168,5.594-1.627,1.705-3.713-.48-5.34,1.224-1.627,1.705.459,3.89-1.168,5.594-1.628,1.705-4.529-.536-5.602,1.597-1.426,2.833.351,5.675-1.95,5.675Z" fill="#000" stroke-width="0"/>
</svg>